<svg width="20" height="24" viewBox="0 0 20 24" fill="none" xmlns="http://www.w3.org/2000/svg">
<path d="M19.7319 16.959C19.7319 20.7652 16.7387 23.8419 12.9518 23.8419C9.20244 23.8419 6.20919 20.8414 6.20919 16.959C6.20919 15.132 6.89032 13.5175 7.97139 12.3059L3.38778 16.959L0.981934 14.5167L6.15295 9.32436C6.85283 8.61387 7.21215 7.69086 7.21215 6.6727V0.157715H10.6022V6.6727C10.6022 8.67096 9.90232 10.3647 8.53692 11.7477L8.38383 11.8999C9.57738 10.7834 11.2052 10.111 12.9487 10.111C16.798 10.1142 19.7319 13.2099 19.7319 16.959ZM16.6637 16.959C16.6637 14.9195 14.9983 13.267 12.9518 13.267C10.8865 13.267 9.27743 14.9988 9.27743 16.959C9.27743 18.9763 10.9053 20.6891 12.9518 20.6891C15.0733 20.6891 16.6637 18.9414 16.6637 16.959Z" fill="#F7F2F6"/>
</svg>
