<svg width="25" height="24" viewBox="0 0 25 24" fill="none" xmlns="http://www.w3.org/2000/svg">
<g clip-path="url(#clip0_61_10242)">
<path d="M24.4998 11.9258C24.4717 9.62486 23.7907 7.37994 22.537 5.4554C21.2832 3.53086 19.5091 2.00683 17.4235 1.06282C15.3377 0.118814 13.0273 -0.205862 10.7643 0.127009C8.50141 0.459896 6.38011 1.43646 4.65031 2.94174C2.92049 4.44701 1.6542 6.41828 1.00055 8.62338C0.346923 10.8285 0.333153 13.1756 0.960891 15.3884C1.58863 17.6011 2.83172 19.5872 4.54376 21.1129C6.25579 22.6386 8.3655 23.6403 10.6244 24V15.4424H7.62431V11.9258H10.6244V9.25433C10.5549 8.6332 10.6218 8.00427 10.8204 7.41197C11.019 6.81967 11.3444 6.27844 11.7736 5.82649C12.2027 5.37452 12.7252 5.02284 13.3042 4.79628C13.8832 4.56971 14.5047 4.47377 15.1245 4.51524C16.0242 4.52763 16.9219 4.60836 17.8096 4.75673V7.77528H16.3095C16.0509 7.74246 15.7881 7.76854 15.5409 7.85159C15.2936 7.93465 15.068 8.07255 14.8808 8.25512C14.6935 8.43768 14.5495 8.66024 14.4594 8.90629C14.3691 9.15246 14.335 9.41583 14.3595 9.67693V11.9559H17.6896L17.1496 15.4726H14.3745V23.9245C17.2094 23.4734 19.7898 22.0148 21.6474 19.8134C23.5051 17.612 24.517 14.8136 24.4998 11.9258Z" fill="#F7F2F6"/>
</g>
<defs>
<clipPath id="clip0_61_10242">
<rect width="24" height="24" fill="white" transform="translate(0.5)"/>
</clipPath>
</defs>
</svg>
