<svg width="25" height="24" viewBox="0 0 25 24" fill="none" xmlns="http://www.w3.org/2000/svg">
<path d="M0.981934 6C0.981934 2.68629 3.66823 0 6.98193 0H18.9819C22.2956 0 24.9819 2.68629 24.9819 6V18C24.9819 21.3137 22.2956 24 18.9819 24H6.98193C3.66823 24 0.981934 21.3137 0.981934 18V6Z" fill="#F7F2F6"/>
<path d="M7.01866 11.7969C6.96868 11.7969 6.93119 11.8344 6.92494 11.8906L6.78125 13.6399L6.92494 15.333C6.93119 15.383 6.96868 15.4267 7.01866 15.4267C7.06864 15.4267 7.10612 15.3892 7.11237 15.333L7.27481 13.6399L7.11237 11.8906C7.10612 11.8344 7.06239 11.7969 7.01866 11.7969Z" fill="#171317"/>
<path d="M7.65593 11.9092C7.5997 11.9092 7.54972 11.9529 7.54972 12.0154L7.41852 13.6398L7.54972 15.3453C7.55596 15.4078 7.5997 15.4515 7.65593 15.4515C7.71215 15.4515 7.75589 15.4078 7.76213 15.3453L7.91207 13.6398L7.76213 12.0154C7.75589 11.9529 7.71215 11.9092 7.65593 11.9092Z" fill="#171317"/>
<path d="M5.75659 12.1343C5.72535 12.1343 5.69411 12.1593 5.68787 12.1968L5.53168 13.6337L5.68787 15.0394C5.69411 15.0769 5.7191 15.1019 5.75659 15.1019C5.78783 15.1019 5.81907 15.0769 5.82531 15.0394L6.00649 13.6337L5.82531 12.1968C5.81282 12.1655 5.78783 12.1343 5.75659 12.1343Z" fill="#171317"/>
<path d="M5.16311 12.6841C5.13187 12.6841 5.10064 12.7091 5.10064 12.7466L4.98193 13.64L5.10064 14.5146C5.10688 14.5521 5.13187 14.5771 5.16311 14.5771C5.19435 14.5771 5.21934 14.5521 5.22559 14.5146L5.36304 13.64L5.22559 12.7528C5.21934 12.7153 5.19435 12.6841 5.16311 12.6841Z" fill="#171317"/>
<path d="M8.94914 10.2598C8.87417 10.2598 8.81794 10.316 8.8117 10.391L8.69299 13.6397L8.8117 15.339C8.81794 15.414 8.87417 15.4702 8.94914 15.4702C9.02411 15.4702 9.08034 15.414 9.08659 15.339L9.21779 13.6397L9.08659 10.391C9.08034 10.316 9.01787 10.2598 8.94914 10.2598Z" fill="#171317"/>
<path d="M6.38131 11.853C6.33757 11.853 6.30634 11.8843 6.30009 11.9342L6.15015 13.6398L6.30009 15.2829C6.30634 15.3267 6.33757 15.3641 6.38131 15.3641C6.42504 15.3641 6.45628 15.3329 6.46252 15.2892L6.63121 13.6461L6.46252 11.9405C6.45628 11.8905 6.42504 11.853 6.38131 11.853Z" fill="#171317"/>
<path d="M8.29938 10.8784C8.2369 10.8784 8.18068 10.9284 8.18068 10.9971L8.05573 13.6398L8.18068 15.3454C8.18692 15.4141 8.2369 15.4641 8.29938 15.4641C8.36186 15.4641 8.41808 15.4141 8.41808 15.3454L8.56178 13.6398L8.41808 10.9971C8.41808 10.9284 8.36186 10.8784 8.29938 10.8784Z" fill="#171317"/>
<path d="M12.2665 9.37256C12.1541 9.37256 12.0666 9.46002 12.0666 9.57248L11.9916 13.6334L12.0666 15.264C12.0666 15.3765 12.1603 15.4639 12.2665 15.4639C12.379 15.4639 12.4665 15.3702 12.4665 15.264L12.5539 13.6334L12.4665 9.57248C12.4727 9.46627 12.379 9.37256 12.2665 9.37256Z" fill="#171317"/>
<path d="M9.59882 9.97266C9.5176 9.97266 9.45513 10.0351 9.44888 10.1226L9.33643 13.64L9.44888 15.3206C9.44888 15.4018 9.5176 15.4642 9.59882 15.4642C9.68004 15.4642 9.74252 15.4018 9.74877 15.3143L9.87372 13.6337L9.74877 10.1164C9.74877 10.0414 9.68004 9.97266 9.59882 9.97266Z" fill="#171317"/>
<path d="M19.0077 11.5406C18.7391 11.5406 18.4829 11.5968 18.2455 11.6906C18.0893 9.91625 16.6024 8.5293 14.7906 8.5293C14.347 8.5293 13.9159 8.61676 13.5348 8.7667C13.3849 8.82293 13.3474 8.88541 13.3474 8.99786V15.2392C13.3474 15.3579 13.4411 15.4578 13.5598 15.4703C13.5661 15.4703 18.9765 15.4703 19.0139 15.4703C20.101 15.4703 20.9819 14.5894 20.9819 13.5023C20.9757 12.4215 20.0948 11.5406 19.0077 11.5406Z" fill="#171317"/>
<path d="M12.9413 8.9917C12.8226 8.9917 12.7288 9.09166 12.7226 9.21036L12.6351 13.6399L12.7226 15.2455C12.7226 15.3642 12.8226 15.4579 12.9413 15.4579C13.06 15.4579 13.1537 15.3579 13.1599 15.2392L13.2536 13.6274L13.1599 9.19787C13.1537 9.09166 13.06 8.9917 12.9413 8.9917Z" fill="#171317"/>
<path d="M10.2611 9.84131C10.1736 9.84131 10.1049 9.91003 10.0986 10.0037L9.99866 13.6398L10.0986 15.3079C10.0986 15.3954 10.1736 15.4703 10.2611 15.4703C10.3485 15.4703 10.4172 15.4016 10.4235 15.3079L10.5359 13.6398L10.4235 10.0037C10.4172 9.91003 10.3485 9.84131 10.2611 9.84131Z" fill="#171317"/>
<path d="M10.9233 9.92236C10.8296 9.92236 10.7484 9.99733 10.7484 10.0973L10.6547 13.6397L10.7484 15.2953C10.7484 15.3952 10.8296 15.4702 10.9233 15.4702C11.017 15.4702 11.0982 15.3952 11.0982 15.2953L11.2044 13.6397L11.0982 10.0973C11.0982 9.99733 11.0233 9.92236 10.9233 9.92236Z" fill="#171317"/>
<path d="M11.5918 10.0352C11.4856 10.0352 11.4044 10.1164 11.4044 10.2226L11.3169 13.64L11.4044 15.2831C11.4044 15.3893 11.4918 15.4705 11.5918 15.4705C11.698 15.4705 11.7792 15.3893 11.7792 15.2831L11.8729 13.64L11.7792 10.2226C11.7792 10.1226 11.698 10.0352 11.5918 10.0352Z" fill="#171317"/>
</svg>
