<svg width="25" height="24" viewBox="0 0 25 24" fill="none" xmlns="http://www.w3.org/2000/svg">
<g clip-path="url(#clip0_61_10221)">
<path fill-rule="evenodd" clip-rule="evenodd" d="M19.8299 10.6383C15.9623 8.34148 9.58193 8.12998 5.88833 9.25078C5.29553 9.42958 4.66913 9.09595 4.48913 8.50195C4.30913 7.90915 4.64393 7.28273 5.23673 7.10273C9.47633 5.81513 16.5227 6.06343 20.9759 8.70703C21.5087 9.02383 21.6839 9.7129 21.3671 10.2457C21.0527 10.7785 20.3615 10.9551 19.8299 10.6383ZM19.7039 14.0402C19.4327 14.4806 18.8567 14.6184 18.4163 14.3484C15.1919 12.366 10.2743 11.7924 6.45954 12.9504C5.96394 13.0992 5.44194 12.8208 5.29194 12.3264C5.14314 11.832 5.42153 11.3098 5.91593 11.1598C10.2731 9.83737 15.6911 10.4783 19.3955 12.7547C19.8359 13.0247 19.9739 13.601 19.7039 14.0402ZM18.2351 17.3074C18.0191 17.6602 17.5595 17.7719 17.2067 17.5559C14.3891 15.8339 10.8419 15.4452 6.66473 16.3992C6.26273 16.4916 5.86073 16.2393 5.76953 15.8361C5.67713 15.4341 5.92793 15.0338 6.33233 14.9414C10.9031 13.8962 14.8235 14.3459 17.9867 16.2791C18.3395 16.4951 18.4511 16.9546 18.2351 17.3074ZM12.7319 0C6.10433 0 0.731934 5.3724 0.731934 12C0.731934 18.6276 6.10433 24 12.7319 24C19.3595 24 24.7319 18.6276 24.7319 12C24.7319 5.3736 19.3595 0 12.7319 0Z" fill="#F7F2F6"/>
</g>
<defs>
<clipPath id="clip0_61_10221">
<rect width="24" height="24" fill="white" transform="translate(0.731934)"/>
</clipPath>
</defs>
</svg>
