<svg width="36" height="24" viewBox="0 0 36 24" fill="none" xmlns="http://www.w3.org/2000/svg">
<path d="M17.8745 0C17.8745 0 28.5959 0.000229436 31.27 0.716797C32.7453 1.11102 33.907 2.27282 34.3013 3.74805C35.0157 6.41436 35.0181 11.9685 35.0181 12C35.0181 12 35.0178 17.5783 34.3013 20.252C33.907 21.7272 32.7453 22.889 31.27 23.2832C28.596 23.9995 17.8745 24 17.8745 24C17.8162 24 7.14579 23.9976 4.479 23.2832C3.00428 22.8889 1.84201 21.7271 1.44775 20.252C0.731621 17.5783 0.731934 12 0.731934 12C0.731939 11.9685 0.733654 6.4144 1.44775 3.74805C1.84201 2.27292 3.00425 1.1111 4.479 0.716797C7.14579 0.00216702 17.8162 5.33916e-06 17.8745 0ZM14.4458 17.1436L23.354 12L14.4458 6.85742V17.1436Z" fill="#F7F2F6"/>
</svg>
