<svg width="25" height="24" viewBox="0 0 25 24" fill="none" xmlns="http://www.w3.org/2000/svg">
<g clip-path="url(#clip0_61_10226)">
<path d="M24.7319 6.12398C24.7319 6.09498 24.7329 6.06098 24.7329 6.02698C24.7329 5.28398 24.6449 4.56198 24.4799 3.87098L24.4929 3.93398C24.1809 2.64298 23.3929 1.57498 22.3299 0.902977L22.3099 0.890976C21.7739 0.540977 21.1419 0.286977 20.4629 0.167977L20.4329 0.163977C19.9699 0.0799766 19.4299 0.0259766 18.8799 0.0139766H18.8689C18.8289 0.0139766 18.7859 0.00397656 18.7449 0.000976562H6.71989C6.56789 0.0109766 6.41989 0.0179766 6.26489 0.0269766C5.47389 0.0429766 4.72289 0.187977 4.02289 0.441977L4.07189 0.426977C2.76589 0.927976 1.74489 1.92198 1.21889 3.17498L1.20689 3.20798C1.03689 3.61698 0.909887 4.09298 0.846887 4.58798L0.843887 4.61598C0.792887 4.95898 0.756887 5.36698 0.743887 5.78098V5.79698C0.743887 5.82898 0.736887 5.85898 0.733887 5.88998V18.114C0.743887 18.254 0.750887 18.397 0.760887 18.538C0.780887 19.399 0.962887 20.211 1.27689 20.954L1.26089 20.911C1.86989 22.275 3.03489 23.298 4.45989 23.703L4.49489 23.712C4.87189 23.823 5.31189 23.904 5.76589 23.939L5.78789 23.94C6.34289 23.993 6.89789 24 7.45489 24H18.4829C19.0369 24 19.5819 23.963 20.1159 23.893L20.0529 23.9C20.9169 23.804 21.6979 23.515 22.3739 23.077L22.3529 23.09C23.1779 22.551 23.8229 21.8 24.2199 20.914L24.2329 20.882C24.3989 20.499 24.5279 20.053 24.5989 19.589L24.6029 19.558C24.6869 19.019 24.7349 18.397 24.7349 17.764C24.7349 17.678 24.7339 17.593 24.7319 17.508V17.521C24.7319 13.721 24.7319 9.92298 24.7319 6.12698V6.12398ZM18.3079 10.114V15.826C18.3089 15.851 18.3089 15.88 18.3089 15.909C18.3089 16.316 18.2189 16.703 18.0569 17.049L18.0639 17.032C17.7909 17.594 17.2929 18.011 16.6909 18.169L16.6759 18.172C16.3599 18.266 15.9939 18.328 15.6159 18.345H15.6059C15.5769 18.347 15.5439 18.347 15.5099 18.347C14.4769 18.347 13.6389 17.509 13.6389 16.476C13.6389 15.735 14.0699 15.094 14.6949 14.791L14.7059 14.786C14.9989 14.646 15.3409 14.534 15.6969 14.466L15.7239 14.462C16.1019 14.38 16.4819 14.309 16.8579 14.222C17.1219 14.177 17.3259 13.97 17.3679 13.709V13.706C17.3809 13.649 17.3879 13.584 17.3879 13.517C17.3879 13.515 17.3879 13.514 17.3879 13.512C17.3879 11.6966 17.3879 9.88231 17.3879 8.06898C17.3869 8.00298 17.3779 7.93898 17.3609 7.87898L17.3619 7.88398C17.3359 7.74998 17.2189 7.64898 17.0789 7.64898C17.0729 7.64898 17.0669 7.64898 17.0609 7.64998C16.8829 7.66298 16.7219 7.68598 16.5629 7.71998L16.5869 7.71598C15.8269 7.86598 15.0669 8.01798 14.3069 8.17198L10.6069 8.91998C10.5909 8.91998 10.5749 8.92998 10.5589 8.93298C10.3369 8.96298 10.1669 9.15198 10.1669 9.37998C10.1669 9.39498 10.1679 9.40998 10.1689 9.42498V9.42298V9.55298C10.1689 12.153 10.1689 14.7533 10.1689 17.354C10.1699 17.382 10.1699 17.416 10.1699 17.449C10.1699 17.857 10.0909 18.246 9.94589 18.601L9.95289 18.58C9.68889 19.194 9.16089 19.652 8.51689 19.815L8.50189 19.818C8.18289 19.914 7.81489 19.976 7.43489 19.99H7.42689C7.39589 19.992 7.35989 19.993 7.32289 19.993C6.40989 19.993 5.65289 19.328 5.50789 18.457L5.50689 18.446C5.48689 18.344 5.47589 18.228 5.47589 18.108C5.47589 17.323 5.96089 16.65 6.64789 16.375L6.66089 16.371C6.97589 16.244 7.34789 16.137 7.73289 16.066L7.76889 16.061C8.05589 16.001 8.34389 15.945 8.62889 15.884C8.96989 15.834 9.22889 15.543 9.22889 15.191C9.22889 15.184 9.22889 15.176 9.22889 15.169V15.17V15.02C9.22889 12.06 9.22889 9.09898 9.22889 6.13698C9.22889 6.13498 9.22889 6.13298 9.22889 6.12998C9.22889 6.00098 9.24389 5.87598 9.27289 5.75598L9.27089 5.76698C9.33689 5.50298 9.54789 5.30098 9.81289 5.24998L9.81689 5.24898C10.0719 5.18298 10.3319 5.13698 10.5909 5.08398C11.3239 4.93398 12.0569 4.78398 12.7909 4.63998L15.0609 4.17998C15.7309 4.04598 16.4009 3.90998 17.0709 3.77998C17.2519 3.73798 17.4779 3.70098 17.7079 3.67598L17.7349 3.67398C17.7529 3.67198 17.7749 3.66998 17.7959 3.66998C18.0659 3.66998 18.2849 3.88698 18.2889 4.15498C18.2969 4.22198 18.3009 4.29898 18.3009 4.37698C18.3009 6.28698 18.3009 8.19864 18.3009 10.11L18.3079 10.114Z" fill="#F7F2F6"/>
</g>
<defs>
<clipPath id="clip0_61_10226">
<rect width="24" height="24" fill="white" transform="translate(0.731934)"/>
</clipPath>
</defs>
</svg>
