<svg width="25" height="24" viewBox="0 0 25 24" fill="none" xmlns="http://www.w3.org/2000/svg">
<g clip-path="url(#clip0_61_10237)">
<path fill-rule="evenodd" clip-rule="evenodd" d="M7.71965 0.150956C5.71736 0.2413 3.98189 0.730834 2.58053 2.12628C1.17428 3.52905 0.690823 5.2714 0.600255 7.25286C0.543956 8.4896 0.214747 17.8329 1.16938 20.2831C1.81315 21.9362 3.08107 23.2072 4.74924 23.853C5.52763 24.1558 6.4162 24.3607 7.71965 24.4205C18.6184 24.9138 22.6585 24.6453 24.3621 20.2831C24.6644 19.5067 24.8725 18.6189 24.93 17.3186C25.4281 6.39193 24.8493 4.0235 22.9498 2.12628C21.4432 0.623394 19.671 -0.399651 7.71965 0.150956ZM7.81999 22.223C6.62669 22.1693 5.97926 21.9705 5.54723 21.8032C4.46041 21.3808 3.64408 20.5678 3.22428 19.4874C2.49729 17.6255 2.73841 8.78281 2.80327 7.35196C2.86691 5.9504 3.15085 4.66948 4.13976 3.68059C5.36365 2.45972 6.9449 1.86138 17.7115 2.34729C19.1165 2.41077 20.4004 2.69413 21.3918 3.68059C22.6156 4.90144 23.2227 6.49487 22.7282 17.2201C22.6744 18.4105 22.4749 19.0564 22.3072 19.4874C21.1996 22.3259 18.6514 22.7199 7.81999 22.223ZM17.8302 5.76822C17.8302 6.57643 18.4875 7.23364 19.2989 7.23364C20.1103 7.23364 20.7688 6.57643 20.7688 5.76822C20.7688 4.96001 20.1103 4.30339 19.2989 4.30339C18.4875 4.30339 17.8302 4.96001 17.8302 5.76822ZM6.48106 12.2852C6.48106 15.7475 9.2948 18.5546 12.7658 18.5546C16.2367 18.5546 19.0505 15.7475 19.0505 12.2852C19.0505 8.82279 16.2367 6.01746 12.7658 6.01746C9.2948 6.01746 6.48106 8.82279 6.48106 12.2852ZM8.68651 12.2852C8.68651 10.0388 10.5126 8.2162 12.7658 8.2162C15.0189 8.2162 16.845 10.0388 16.845 12.2852C16.845 14.5328 15.0189 16.3559 12.7658 16.3559C10.5126 16.3559 8.68651 14.5328 8.68651 12.2852Z" fill="#F7F2F6"/>
</g>
<defs>
<clipPath id="clip0_61_10237">
<rect width="24" height="24" fill="white" transform="translate(0.5)"/>
</clipPath>
</defs>
</svg>
