<svg width="20" height="20" viewBox="0 0 20 20" fill="none" xmlns="http://www.w3.org/2000/svg">
<path d="M16 0C18.2091 0 20 1.79086 20 4V16C20 18.2091 18.2091 20 16 20H4C1.79086 20 3.22133e-08 18.2091 0 16V4C0 1.79086 1.79086 3.22128e-08 4 0H16ZM7.9502 8.16113C7.8722 8.16126 7.80469 8.22342 7.80469 8.30664L7.72656 11.2588L7.80469 12.6377C7.80469 12.7209 7.8722 12.7841 7.9502 12.7842C8.02829 12.7842 8.09668 12.721 8.09668 12.6377L8.18457 11.2588L8.09668 8.30664C8.09668 8.22334 8.0335 8.16113 7.9502 8.16113ZM8.50781 8.25488C8.41945 8.25488 8.35178 8.32186 8.35156 8.41016L8.27832 11.2588L8.35156 12.6279C8.3517 12.7163 8.42459 12.7842 8.50781 12.7842C8.59603 12.784 8.66393 12.7162 8.66406 12.6279L8.74121 11.2588L8.66406 8.41016C8.66383 8.32716 8.59597 8.25511 8.50781 8.25488ZM11.1738 7C10.8042 7 10.4445 7.07233 10.127 7.19727C10.0022 7.24407 9.97078 7.29615 9.9707 7.38965V12.5908C9.9707 12.6897 10.0486 12.7737 10.1475 12.7842H14.6924C15.5983 12.7842 16.333 12.0494 16.333 11.1436C16.3277 10.2429 15.5933 9.50879 14.6875 9.50879C14.4638 9.5088 14.2505 9.55578 14.0527 9.63379C13.9226 8.15539 12.6834 7.00024 11.1738 7ZM6.30566 8.44141C6.24319 8.44141 6.19564 8.48831 6.19043 8.55078L6.0918 11.2578L6.19043 12.6738C6.19564 12.7363 6.24319 12.7832 6.30566 12.7832C6.36793 12.783 6.41473 12.7362 6.41992 12.6738L6.5293 11.2578L6.41992 8.55078C6.41473 8.48845 6.36277 8.44163 6.30566 8.44141ZM7.39844 8.09277C7.32574 8.09298 7.26887 8.15057 7.26367 8.22852L7.18066 11.2578L7.26367 12.6484C7.26376 12.7211 7.32578 12.783 7.39844 12.7832C7.47127 12.7832 7.5289 12.7264 7.53418 12.6484L7.62793 11.2578L7.53418 8.22852C7.52897 8.15042 7.47133 8.09277 7.39844 8.09277ZM5.76367 8.95703C5.71186 8.95725 5.66519 8.99869 5.66504 9.05566L5.56152 11.2578L5.66504 12.6797C5.67029 12.7367 5.71184 12.7781 5.76367 12.7783C5.81569 12.7783 5.86319 12.7369 5.86328 12.6797L5.98242 11.2578L5.86328 9.05566C5.86313 8.99854 5.81565 8.95703 5.76367 8.95703ZM6.84668 8.20215C6.779 8.20215 6.72689 8.25426 6.72168 8.32715L6.62793 11.2578L6.72168 12.6592C6.72193 12.7266 6.77915 12.7783 6.84668 12.7783C6.91432 12.7783 6.96648 12.7262 6.97168 12.6533L7.0752 11.2529L6.97168 8.32227C6.97168 8.25982 6.91432 8.2022 6.84668 8.20215ZM9.07031 7.70215C8.9766 7.70215 8.90332 7.77543 8.90332 7.86914L8.84082 11.2529L8.90332 12.6113C8.90332 12.705 8.98181 12.7783 9.07031 12.7783C9.16383 12.7781 9.23633 12.6997 9.23633 12.6113L9.30957 11.2529L9.23633 7.86914C9.24153 7.78076 9.16384 7.70238 9.07031 7.70215ZM9.63184 7.38477C9.53302 7.38489 9.4554 7.46854 9.4502 7.56738L9.37695 11.2578L9.4502 12.5967C9.45043 12.6953 9.53316 12.7733 9.63184 12.7734C9.73076 12.7734 9.80925 12.6897 9.81445 12.5908L9.89258 11.248L9.81445 7.55664C9.80925 7.46813 9.73076 7.38477 9.63184 7.38477ZM5.22754 9.81641C5.18076 9.81645 5.13874 9.85233 5.13867 9.9043L5.03027 11.2578L5.13867 12.6797C5.14397 12.7316 5.1808 12.7675 5.22754 12.7676C5.27431 12.7676 5.3111 12.7316 5.31641 12.6797L5.44141 11.2578L5.31641 9.9043C5.31116 9.85229 5.27437 9.81641 5.22754 9.81641ZM4.69629 9.72266C4.65481 9.7227 4.62351 9.75322 4.61816 9.7998L4.49902 11.2578L4.61816 12.6689C4.62337 12.7106 4.65468 12.747 4.69629 12.7471C4.73793 12.7471 4.7692 12.7158 4.77441 12.6689L4.91016 11.2578L4.77441 9.7998C4.76902 9.7532 4.73261 9.72266 4.69629 9.72266ZM4.16504 9.76953C4.12873 9.76965 4.10285 9.79536 4.09766 9.83691L3.97266 11.2578L4.09766 12.627C4.10285 12.6633 4.12873 12.6952 4.16504 12.6953C4.2014 12.6953 4.22811 12.6691 4.2334 12.6328L4.37402 11.2637L4.2334 9.8418C4.22817 9.80019 4.20146 9.76953 4.16504 9.76953ZM3.64453 10.0039C3.61864 10.0041 3.59307 10.0246 3.58789 10.0557L3.45801 11.2529L3.58789 12.4248C3.59321 12.4556 3.61369 12.4764 3.64453 12.4766C3.67043 12.4766 3.69676 12.4558 3.70215 12.4248L3.85352 11.2529L3.70215 10.0557C3.69174 10.0296 3.67056 10.0039 3.64453 10.0039ZM3.15039 10.4619C3.12448 10.462 3.0988 10.4826 3.09863 10.5137L3 11.2588L3.09863 11.9873C3.10383 12.0185 3.12441 12.039 3.15039 12.0391C3.17642 12.0391 3.19694 12.0185 3.20215 11.9873L3.31738 11.2588L3.20215 10.5195C3.19694 10.4883 3.17642 10.4619 3.15039 10.4619Z" fill="#FFF9FF"/>
</svg>
