<svg width="25" height="24" viewBox="0 0 25 24" fill="none" xmlns="http://www.w3.org/2000/svg">
<path d="M5.53169 15.5008C5.67595 14.3064 6.1658 13.6377 7.08888 12.9522C8.4097 12.0238 10.0595 12.5489 10.0595 12.5489V9.43347C10.4607 9.42313 10.8619 9.44695 11.2586 9.50446V13.5138C11.2586 13.5138 9.60924 12.9887 8.2885 13.9176C7.36589 14.6026 6.87503 15.2718 6.73128 16.4662C6.72677 17.1147 6.84848 17.9625 7.409 18.6955C7.27035 18.6244 7.12912 18.5435 6.98521 18.4527C5.75057 17.6235 5.52569 16.3798 5.53169 15.5008ZM18.071 3.67282C17.1624 2.6772 16.8187 1.67197 16.6946 0.96582H17.8375C17.8375 0.96582 17.6096 2.81737 19.2705 4.63821L19.2936 4.66269C18.8459 4.38111 18.4354 4.04875 18.071 3.67282ZM23.5769 6.49551V10.4242C23.5769 10.4242 22.1185 10.3672 21.0391 10.0925C19.5319 9.70846 18.5633 9.11944 18.5633 9.11944C18.5633 9.11944 17.8941 8.69944 17.84 8.67018V16.783C17.84 17.2347 17.7163 18.3628 17.3392 19.3037C16.8468 20.5346 16.087 21.3425 15.9473 21.5077C15.9473 21.5077 15.0232 22.5998 13.3928 23.3353C11.9233 23.9987 10.633 23.9819 10.2474 23.9987C10.2474 23.9987 8.01703 24.087 6.01003 22.7827C5.57603 22.4952 5.17092 22.1696 4.79993 21.8101L4.80995 21.8173C6.81743 23.1216 9.04727 23.0332 9.04727 23.0332C9.43349 23.0164 10.7237 23.0332 12.1927 22.3698C13.8216 21.6344 14.7472 20.5423 14.7472 20.5423C14.8854 20.3772 15.6487 19.5692 16.1391 18.3379C16.5152 17.3975 16.6399 16.2688 16.6399 15.8172V7.70529C16.694 7.73501 17.3627 8.15501 17.3627 8.15501C17.3627 8.15501 18.3319 8.74458 19.839 9.12812C20.9188 9.40273 22.3769 9.45987 22.3769 9.45987V6.38127C22.8758 6.49311 23.301 6.52339 23.5769 6.49551Z" fill="#3C383B"/>
<path d="M22.3778 6.38127V9.45886C22.3778 9.45886 20.9197 9.40172 19.8399 9.1272C18.3328 8.74311 17.3635 8.15409 17.3635 8.15409C17.3635 8.15409 16.6948 7.73409 16.6408 7.70428V15.8181C16.6408 16.2699 16.5171 17.3984 16.1399 18.3388C15.6475 19.5702 14.8877 20.3781 14.748 20.5432C14.748 20.5432 13.8234 21.6353 12.1936 22.3708C10.7245 23.0342 9.43431 23.0174 9.04809 23.0342C9.04809 23.0342 6.81825 23.1226 4.81076 21.8183L4.80075 21.8111C4.5888 21.6058 4.3893 21.3891 4.20321 21.1621C3.5626 20.381 3.16992 19.4573 3.07125 19.1938V19.1905C2.91248 18.7325 2.5789 17.6327 2.62448 16.5675C2.70512 14.6881 3.36626 13.5345 3.54106 13.2455C4.00401 12.4575 4.60614 11.7523 5.32065 11.1617C5.95116 10.6518 6.66582 10.2462 7.4353 9.96147C8.26717 9.62713 9.15794 9.44787 10.0599 9.43347V12.5489C10.0599 12.5489 8.40997 12.0257 7.0897 12.9522C6.16661 13.6377 5.67676 14.3064 5.53251 15.5008C5.52651 16.3798 5.75139 17.6235 6.98502 18.4531C7.12893 18.5443 7.27016 18.6253 7.4088 18.696C7.62425 18.9761 7.88659 19.2203 8.18511 19.4185C9.39018 20.1813 10.3999 20.2346 11.6912 19.7391C12.5522 19.4079 13.2003 18.6615 13.5008 17.8343C13.6897 17.3178 13.6872 16.7979 13.6872 16.2603V0.96582H16.6924C16.8166 1.67197 17.1602 2.6772 18.0688 3.67282C18.4332 4.04875 18.8438 4.38111 19.2914 4.66269C19.4236 4.7995 20.0998 5.47589 20.9678 5.89114C21.4166 6.10578 21.8897 6.27023 22.3778 6.38127Z" fill="#F7F2F6"/>
<path d="M7.4349 9.96147C6.66542 10.2463 5.95076 10.6519 5.32025 11.1617C4.60552 11.7537 4.00354 12.4603 3.54117 13.2498C3.36636 13.5379 2.70522 14.6924 2.62458 16.5718C2.579 17.637 2.91258 18.7369 3.07135 19.1948V19.1981C3.17152 19.4594 3.5627 20.3829 4.20332 21.1664C4.3894 21.3935 4.5889 21.6102 4.80085 21.8154C4.12177 21.3652 3.51613 20.8211 3.00373 20.2005C2.36863 19.4262 1.97695 18.5122 1.87478 18.2424C1.87466 18.2404 1.87466 18.2385 1.87478 18.2367V18.2332C1.7155 17.7758 1.38092 16.6755 1.4275 15.6088C1.50814 13.7295 2.16929 12.5759 2.3441 12.2869C2.80633 11.4972 3.40833 10.7906 4.12318 10.1987C4.75355 9.6887 5.46824 9.2831 6.23784 8.99852C6.71787 8.80763 7.21798 8.66686 7.72945 8.57852C8.50022 8.44957 9.28751 8.4383 10.062 8.54538V9.43347C9.1592 9.44759 8.26751 9.62686 7.4349 9.96147Z" fill="#9F9A9E"/>
<path d="M16.6943 0.96586H13.689V16.2608C13.689 16.7984 13.689 17.3169 13.5027 17.8348C13.1992 18.6615 12.5535 19.4079 11.6931 19.7392C10.4014 20.2366 9.39164 20.1814 8.18703 19.4185C7.88795 19.2212 7.62497 18.9779 7.40869 18.6985C8.43497 19.2231 9.35352 19.214 10.4915 18.7763C11.3515 18.445 11.9981 17.6985 12.3006 16.8714C12.4899 16.3549 12.4875 15.835 12.4875 15.2978V0H16.6371C16.6371 0 16.5906 0.380196 16.6943 0.96586ZM22.3771 5.53018V6.38131C21.89 6.27011 21.4177 6.10565 20.9697 5.89118C20.1017 5.47594 19.4255 4.79955 19.2933 4.66273C19.4467 4.75928 19.6059 4.84712 19.7701 4.9258C20.8254 5.43081 21.8647 5.58155 22.3771 5.53018Z" fill="#9F9A9E"/>
</svg>
