<svg width="25" height="24" viewBox="0 0 25 24" fill="none" xmlns="http://www.w3.org/2000/svg">
<path d="M12.0181 0C18.6455 3.29859e-05 24.0181 5.3726 24.0181 12C24.018 18.6274 18.6454 24 12.0181 24C5.39066 24 0.0180829 18.6274 0.0180664 12C0.0180664 5.37258 5.39065 0 12.0181 0ZM12.0181 5.7002C8.55285 5.7002 5.71826 8.51945 5.71826 12C5.71828 15.4801 8.53799 18.2998 12.0181 18.2998C15.4981 18.2998 18.3179 15.4801 18.3179 12C18.3179 8.51947 15.4833 5.70023 12.0181 5.7002ZM12.0181 6.2998C15.1528 6.29984 17.7183 8.85177 17.7183 12C17.7182 15.1487 15.1667 17.7002 12.0181 17.7002C8.86936 17.7002 6.31789 15.1487 6.31787 12C6.31787 8.85175 8.88328 6.2998 12.0181 6.2998ZM10.2183 15L15.0181 12L10.2183 9V15Z" fill="#F7F2F6"/>
</svg>
